<svg width="59" height="37" viewBox="0 0 59 37" fill="none" xmlns="http://www.w3.org/2000/svg">
<path fill-rule="evenodd" clip-rule="evenodd" d="M19.9909 21.7402C15.9422 22.8293 12.692 23.5675 8.3052 24.3944C6.82401 24.6736 5.59571 24.9241 5.57574 24.9509C5.55566 24.9778 5.41608 25.6531 5.26535 26.4514C5.11463 27.2498 4.82433 28.313 4.62009 28.8137L4.2488 29.7244L2.75382 29.8913C1.05691 30.0806 0.677564 30.2807 0.340037 31.1644C-0.0256267 32.1216 0.105677 33.0121 0.727769 33.7932C0.946571 34.068 1.16725 34.1682 1.64855 34.2111C1.99667 34.2422 6.60123 33.827 11.881 33.2886L21.4805 32.3097L21.7011 32.7145C22.8406 34.8056 24.3477 36.0599 26.388 36.6153C27.1643 36.8266 29.5909 36.8258 30.3691 36.6142C32.405 36.0602 33.9135 34.8041 35.0522 32.7145L35.2729 32.3097L44.8724 33.2886C50.1521 33.827 54.7566 34.2422 55.1048 34.2111C55.5845 34.1684 55.8083 34.0672 56.0293 33.7932C56.8406 32.7876 56.7819 31.2189 55.9026 30.4093C55.5975 30.1282 55.2995 30.0424 54.2292 29.9267C53.5131 29.8493 52.8748 29.7625 52.8108 29.7339C52.572 29.6271 51.9676 27.8233 51.7057 26.4358C51.5566 25.646 51.4193 24.9793 51.4006 24.9541C51.3818 24.9289 49.9798 24.6432 48.2849 24.3194C44.9704 23.6861 41.9218 23.0058 38.583 22.1544C36.6133 21.6521 36.3866 21.6239 34.8315 21.6885C33.5736 21.7408 32.9785 21.8348 32.3518 22.0802C31.203 22.5302 29.9567 23.4388 29.1613 24.4061L28.487 25.2263L27.7974 24.3852C27.0473 23.4702 25.5798 22.4247 24.4596 22.0071C23.8027 21.7623 20.6165 21.572 19.9909 21.7402ZM23.3553 24.2415C24.0023 24.3931 24.628 24.6619 25.1888 25.0127C26.0611 25.5582 27.0846 26.536 27.4429 27.6278C27.5757 28.0325 29.364 28.1552 29.5949 27.6278C29.9285 26.633 30.6615 25.7458 31.7252 25.0656C32.9825 24.2615 33.6074 24.0905 35.2177 24.1098C36.344 24.1233 37.0218 24.2372 38.914 24.731C41.8455 25.4959 43.9066 25.9579 46.9688 26.5364C48.3039 26.7885 49.5147 27.0447 49.6594 27.1058C49.8647 27.1923 49.9885 27.4678 50.2226 28.3594C50.4813 29.3445 50.4981 29.502 50.3442 29.502C50.2461 29.502 46.5225 29.1358 42.0696 28.6884C33.9809 27.8756 33.9731 27.8752 33.5024 28.1552C33.0884 28.4012 32.9838 28.5694 32.6416 29.5385C31.88 31.6953 30.7375 32.4867 28.3797 32.4907C26.104 32.4946 24.8325 31.6576 24.1818 29.7271C23.8574 28.7648 23.5321 28.2766 23.0527 28.0325C22.8262 27.9172 20.7016 28.0838 14.6685 28.6901C10.2239 29.1366 6.55147 29.502 6.50733 29.502C6.46309 29.502 6.51837 29.2158 6.62992 28.8658C6.74147 28.516 6.86847 28.0115 6.91206 27.7447C6.96105 27.4451 7.08231 27.2141 7.22939 27.1404C7.36025 27.0747 8.28666 26.8723 9.28799 26.6906C11.7113 26.2508 15.2751 25.4642 17.7841 24.8153C21.1215 23.952 21.8155 23.8806 23.3553 24.2415Z" fill="#E2E7E9"/>
<path fill-rule="evenodd" clip-rule="evenodd" d="M17.3598 22.4264C18.2111 22.212 19.0809 21.985 19.9909 21.7402C20.6165 21.572 23.8027 21.7623 24.4596 22.0071C25.5798 22.4247 27.0473 23.4702 27.7974 24.3852L28.487 25.2263L29.1613 24.4061C29.9567 23.4388 31.203 22.5302 32.3518 22.0802C32.9785 21.8348 33.5736 21.7408 34.8315 21.6885C36.3866 21.6239 36.6133 21.6521 38.583 22.1544C39.0058 22.2622 39.4236 22.3673 39.8382 22.4698C39.7438 21.9648 39.5903 21.4712 39.3799 20.9994C39.0019 20.152 38.4489 19.3941 37.7571 18.7758C37.6243 17.7769 37.3291 16.8064 36.8831 15.9029C38.1336 13.4275 39.0465 10.7956 39.5975 8.07764C39.9949 6.01538 40.2564 3.20453 39.2424 1.52647C39.01 1.11319 38.6697 0.770749 38.2579 0.535675C37.8461 0.300601 37.3783 0.181709 36.9042 0.191682C33.6247 0.191682 31.602 5.85827 30.4441 10.9426C29.2247 10.6915 27.9668 10.6915 26.7474 10.9426C25.5895 5.85827 23.5669 0.191682 20.2873 0.191682C19.8137 0.181319 19.3461 0.299613 18.9343 0.533969C18.5226 0.768324 18.1821 1.10997 17.9491 1.52251C16.9339 3.20057 17.1979 6.01142 17.594 8.07367C18.1447 10.793 19.0576 13.4262 20.3085 15.9029C19.862 16.8077 19.5668 17.7795 19.4344 18.7797C18.7731 19.3718 18.2379 20.0912 17.8609 20.8948C17.6314 21.3841 17.4634 21.8986 17.3598 22.4264ZM25.9968 21.2573C26.1419 21.0402 26.2193 20.7849 26.2193 20.5238C26.2193 20.1736 26.0802 19.8378 25.8326 19.5902C25.585 19.3426 25.2492 19.2035 24.899 19.2035C24.6379 19.2035 24.3826 19.281 24.1655 19.426C23.9484 19.5711 23.7792 19.7773 23.6793 20.0185C23.5793 20.2598 23.5532 20.5253 23.6041 20.7814C23.6551 21.0375 23.7808 21.2727 23.9655 21.4574C24.1501 21.642 24.3853 21.7677 24.6415 21.8187C24.8976 21.8696 25.163 21.8435 25.4043 21.7436C25.6455 21.6436 25.8517 21.4744 25.9968 21.2573ZM31.559 19.426C31.7761 19.281 32.0314 19.2035 32.2925 19.2035C32.6427 19.2035 32.9785 19.3426 33.2261 19.5902C33.4737 19.8378 33.6128 20.1736 33.6128 20.5238C33.6128 20.7849 33.5353 21.0402 33.3903 21.2573C33.2452 21.4744 33.039 21.6436 32.7978 21.7436C32.5565 21.8435 32.2911 21.8696 32.0349 21.8187C31.7788 21.7677 31.5436 21.642 31.3589 21.4574C31.1743 21.2727 31.0486 21.0375 30.9976 20.7814C30.9467 20.5253 30.9728 20.2598 31.0727 20.0185C31.1727 19.7773 31.3419 19.5711 31.559 19.426Z" fill="#E2E7E9"/>
<path d="M1.10064 11.2102C1.01237 11.0852 0.965149 10.9358 0.965531 10.7828C0.965912 10.6298 1.01387 10.4807 1.10277 10.3562C1.19499 10.2299 1.32269 10.1341 1.47025 10.0817L2.4443 9.76459C2.68845 9.68322 2.91033 9.54622 3.09243 9.3644C3.27452 9.18258 3.41185 8.96092 3.49356 8.71692L3.8128 7.73026C3.86562 7.58438 3.96289 7.45875 4.09091 7.37108C4.21892 7.2834 4.37122 7.23809 4.52635 7.24154C4.68148 7.24499 4.83161 7.29701 4.9556 7.39029C5.07959 7.48357 5.17119 7.61339 5.21748 7.76147L5.5353 8.73678C5.61658 8.98102 5.75357 9.20301 5.93542 9.3852C6.11728 9.5674 6.33902 9.70481 6.58313 9.78657L7.56782 10.1072C7.71289 10.1588 7.83826 10.2544 7.92649 10.3805C8.01472 10.5067 8.06142 10.6573 8.06009 10.8112C8.05876 10.9652 8.00948 11.1149 7.91909 11.2395C7.8287 11.3642 7.7017 11.4576 7.55576 11.5067L6.56256 11.8308C6.32499 11.9122 6.10899 12.0464 5.93081 12.2233C5.75263 12.4003 5.61691 12.6153 5.53388 12.8523L5.21677 13.8382C5.16502 13.9832 5.06941 14.1085 4.94321 14.1967C4.81701 14.2848 4.66648 14.3316 4.51252 14.3303C4.35856 14.3291 4.20881 14.2799 4.08405 14.1897C3.9593 14.0995 3.86573 13.9727 3.81635 13.8269L3.50065 12.8523C3.41918 12.6068 3.28122 12.3838 3.09787 12.2014C2.91453 12.0189 2.69091 11.8821 2.44501 11.8017L1.45819 11.4811C1.31347 11.4301 1.18861 11.335 1.10064 11.2102Z" fill="#E2E7E9"/>
<path d="M53.9372 21.8063C53.9501 21.8915 53.9826 21.9726 54.0321 22.0431C54.0983 22.1362 54.1918 22.2066 54.2996 22.2443L54.8333 22.4187C54.9429 22.4538 55.0422 22.5145 55.1242 22.5965C55.2056 22.6778 55.2669 22.777 55.3042 22.8873L55.4744 23.4131C55.5105 23.5231 55.5802 23.619 55.6737 23.6872C55.7673 23.7554 55.88 23.7924 55.9957 23.793C56.1115 23.7936 56.2246 23.7578 56.3188 23.6906C56.4131 23.6234 56.4838 23.5283 56.521 23.4187L56.6948 22.8859C56.7322 22.7786 56.7939 22.6815 56.8751 22.602C56.9563 22.5225 57.0548 22.4628 57.1629 22.4276L57.6882 22.2574C57.7983 22.2216 57.8944 22.152 57.9627 22.0585C58.031 21.9651 58.0682 21.8525 58.069 21.7368C58.0697 21.6211 58.034 21.508 57.9669 21.4137C57.8998 21.3194 57.8047 21.2485 57.6951 21.2112L57.1622 21.0376C57.0534 21.0008 56.9546 20.9393 56.8735 20.858C56.7924 20.7767 56.7312 20.6778 56.6948 20.5689L56.5224 20.0424C56.4878 19.9315 56.4191 19.8344 56.3261 19.7648C56.233 19.6953 56.1203 19.6569 56.0042 19.6552C55.888 19.6534 55.7742 19.6884 55.6791 19.7551C55.584 19.8217 55.5124 19.9168 55.4744 20.0266L55.3007 20.5586C55.2649 20.6675 55.2042 20.7667 55.1215 20.848C55.0398 20.9289 54.9408 20.9902 54.8319 21.0272L54.3065 21.1981C54.225 21.2261 54.1511 21.2726 54.0906 21.334C54.0301 21.3955 53.9848 21.4701 53.9582 21.5521C53.9316 21.6341 53.9244 21.7211 53.9372 21.8063Z" fill="#E2E7E9"/>
</svg>
